# xmcd
#
# Track frame offsets:
#	150
#	13570
#	32274
#	55131
#	74836
#	96526
#	113105
#	124434
#	142711
#	156495
#	172891
#	191473
#	206171
#	233330
#
# Disc length: 3400 seconds
#
# Revision: 0
# Processed by: cddbd v1.5.1PL2 Copyright (c) Steve Scherf et al.
# Submitted via: dBpowerAMP V4.0
#
DISCID=be0d460e
DTITLE=Brock Zeman - Songs From The Mud
DYEAR=2004
DGENRE=Country
TTITLE0=50 Dollar Bill
TTITLE1=Dark As A Dungeon
TTITLE2=Scarecrow Blues
TTITLE3=Holler Out
TTITLE4=Tires On The Gravel
TTITLE5=Dear Father
TTITLE6=Guitar Fool
TTITLE7=Soldier's Prayer
TTITLE8=Caroline
TTITLE9=Sittin' In Hock
TTITLE10=The Mason Gang
TTITLE11=The Sun Went Out
TTITLE12=D'Arcy Plunkett
TTITLE13=Mary-Anne O'Toole
EXTD=
EXTT0=
EXTT1=
EXTT2=
EXTT3=
EXTT4=
EXTT5=
EXTT6=
EXTT7=
EXTT8=
EXTT9=
EXTT10=
EXTT11=
EXTT12=
EXTT13=
PLAYORDER=
